<?xml version="1.0" encoding="utf-8"?>
<!-- Generator: Adobe Illustrator 26.5.0, SVG Export Plug-In . SVG Version: 6.00 Build 0)  -->
<svg version="1.1" id="Layer_1" xmlns="http://www.w3.org/2000/svg" xmlns:xlink="http://www.w3.org/1999/xlink" x="0px" y="0px"
	 viewBox="0 0 346.1 322.7" style="enable-background:new 0 0 346.1 322.7;" xml:space="preserve">
<style type="text/css">
	.st0{fill:#4B4EFC;}
</style>
<path class="st0" d="M256,206c0,0,4.3,16.6,5.1,33.4c1,20.6-1.8,43.1-1.8,43.1s2.8,0.3,5.4-1.9c22.7-18.2,22-67.6,12.8-95.5
	C277.5,185.1,264.1,199.8,256,206L256,206L256,206z"/>
<path class="st0" d="M138.5,196.4c0,0,25.7-22.3,44.6-37.8s37.9-28.8,37.9-28.8l4.9,10.2c0,0-22.6,16.3-52.6,40.9
	c-12.9,10.7-27,23.9-27,23.9s-1.5-2.8-3-4.5S138.5,196.4,138.5,196.4L138.5,196.4L138.5,196.4z"/>
<path class="st0" d="M246.2,179.9C245.5,181.4,187,4.1,134.3,79.7c-22.1,33.4-71.9,138.3-24.1,167.6
	c47.7,29.2,163.9-86.9,163.9-86.9c37.7-35.1,46.3-76.1-20.7-37.8l-4.6-9.4c0,0,14.1-8.8,27.7-13.1c14-4.3,29.8-2.1,34.4,3.7
	c8.2,10.2,3.1,33.4-28.7,70S137.4,319.3,72.7,282.2C8,245.2,101.4,84.9,101.4,84.9s20.2-36.1,41.6-46.4
	C207.4,7,257.2,141.6,267.2,160.7C266.7,161.1,246.2,179.9,246.2,179.9L246.2,179.9L246.2,179.9z"/>
<path class="st0" d="M146.1,213.8c0,9.2-7.3,16.7-16.4,16.7c-21.8-0.8-21.8-32.6,0-33.4C138.8,197.1,146.1,204.6,146.1,213.8
	L146.1,213.8L146.1,213.8z"/>
</svg>
